{
  "accessors": [
    {
      "bufferView": 2,
      "componentType": 5126,
      "count": 3933,
      "max": [
        72.6686019897461,
        153.1658935546875,
        59.875
      ],
      "min": [
        -72.6686019897461,
        1.575700044631958,
        -59.875
      ],
      "type": "VEC3"
    },
    {
      "bufferView": 2,
      "byteOffset": 47196,
      "componentType": 5126,
      "count": 3933,
      "max": [
        0.9999961853027344,
        0.999996542930603,
        0.9999926090240479
      ],
      "min": [
        -0.9999961256980896,
        -0.9999998807907104,
        -1.0
      ],
      "type": "VEC3"
    },
    {
      "bufferView": 1,
      "componentType": 5126,
      "count": 3933,
      "max": [
        0.9970999956130981,
        1.993899941444397
      ],
      "min": [
        0.009800000116229057,
        1.0120999813079834
      ],
      "type": "VEC2"
    },
    {
      "bufferView": 0,
      "componentType": 5125,
      "count": 20460,
      "type": "SCALAR"
    }
  ],
  "asset": {
    "extras": {
      "author": "jadiel.ozuno (https://sketchfab.com/jadiel.ozuna)",
      "license": "CC-BY-4.0 (http://creativecommons.org/licenses/by/4.0/)",
      "source": "https://sketchfab.com/3d-models/mickey-mouse-fbx-8cfc790775f14c8fbbf386fef1352065",
      "title": "Mickey-mouse-fbx"
    },
    "generator": "Sketchfab-12.68.0",
    "version": "2.0"
  },
  "bufferViews": [
    {
      "buffer": 0,
      "byteLength": 81840,
      "name": "floatBufferViews",
      "target": 34963
    },
    {
      "buffer": 0,
      "byteLength": 31464,
      "byteOffset": 81840,
      "byteStride": 8,
      "name": "floatBufferViews",
      "target": 34962
    },
    {
      "buffer": 0,
      "byteLength": 94392,
      "byteOffset": 113304,
      "byteStride": 12,
      "name": "floatBufferViews",
      "target": 34962
    }
  ],
  "buffers": [
    {
      "byteLength": 207696,
      "uri": "scene.bin"
    }
  ],
  "images": [
    {
      "uri": "textures/FUegdMat_baseColor.jpeg"
    }
  ],
  "materials": [
    {
      "doubleSided": true,
      "name": "FUegdMat",
      "pbrMetallicRoughness": {
        "baseColorTexture": {
          "index": 0
        },
        "metallicFactor": 0.0,
        "roughnessFactor": 0.995771704991077
      }
    }
  ],
  "meshes": [
    {
      "name": "FUegd_FUegdMat_0",
      "primitives": [
        {
          "attributes": {
            "NORMAL": 1,
            "POSITION": 0,
            "TEXCOORD_0": 2
          },
          "indices": 3,
          "material": 0,
          "mode": 4
        }
      ]
    }
  ],
  "nodes": [
    {
      "children": [
        1
      ],
      "matrix": [
        1.0,
        0.0,
        0.0,
        0.0,
        0.0,
        2.220446049250313e-16,
        -1.0,
        0.0,
        0.0,
        1.0,
        2.220446049250313e-16,
        0.0,
        0.0,
        0.0,
        0.0,
        1.0
      ],
      "name": "Sketchfab_model"
    },
    {
      "children": [
        2
      ],
      "matrix": [
        1.0,
        0.0,
        0.0,
        0.0,
        0.0,
        0.0,
        1.0,
        0.0,
        0.0,
        -1.0,
        0.0,
        0.0,
        0.0,
        0.0,
        0.0,
        1.0
      ],
      "name": "mickey-mouse.fbx"
    },
    {
      "children": [
        3
      ],
      "name": "RootNode"
    },
    {
      "children": [
        4
      ],
      "matrix": [
        0.009999999776482582,
        0.0,
        0.0,
        0.0,
        0.0,
        0.009999999776482582,
        0.0,
        0.0,
        0.0,
        0.0,
        0.009999999776482582,
        0.0,
        0.0,
        0.0,
        0.0,
        1.0
      ],
      "name": "Mickey Mouse_root"
    },
    {
      "children": [
        5
      ],
      "name": "FUegd"
    },
    {
      "mesh": 0,
      "name": "FUegd_FUegdMat_0"
    }
  ],
  "samplers": [
    {
      "magFilter": 9729,
      "minFilter": 9987,
      "wrapS": 10497,
      "wrapT": 10497
    }
  ],
  "scene": 0,
  "scenes": [
    {
      "name": "Sketchfab_Scene",
      "nodes": [
        0
      ]
    }
  ],
  "textures": [
    {
      "sampler": 0,
      "source": 0
    }
  ]
}
